<?xml version="1.0" encoding="utf-8"?>
<!-- Generator: Adobe Illustrator 21.0.0, SVG Export Plug-In . SVG Version: 6.00 Build 0)  -->
<svg version="1.2" baseProfile="tiny" id="Layer_1" xmlns="http://www.w3.org/2000/svg" xmlns:xlink="http://www.w3.org/1999/xlink"
	 x="0px" y="0px" width="676px" height="690px" viewBox="0 0 676 690" xml:space="preserve">
<rect x="-622" y="551" fill="#5F8E8D" width="1920" height="139"/>
<rect x="-172" y="655.5" fill="#54B4EF" width="171.8" height="19.5"/>
<rect x="252.1" y="466.4" fill="#FFFFFF" width="171.8" height="189.1"/>
<rect x="676.2" y="655.5" fill="#54B4EF" width="171.8" height="19.5"/>
<path fill="#FFFFFF" d="M504,96H171c-6.6,0-12-5.4-12-12V28c0-6.6,5.4-12,12-12h333c6.6,0,12,5.4,12,12v56C516,90.6,510.6,96,504,96
	z"/>
<rect x="176" y="81" width="323" height="6"/>
<rect x="176" y="71" width="323" height="6"/>
<circle fill="#339999" cx="499" cy="40" r="5"/>
<rect x="-165" y="175" fill="#FFFFFF" width="213" height="439"/>
<rect x="-154" y="190" fill="#939393" width="192" height="93"/>
<rect x="-95" y="204" fill="#333333" width="75" height="12"/>
<rect x="-153" y="293" fill="#939393" width="192" height="93"/>
<rect x="-94" y="307" fill="#333333" width="75" height="12"/>
<rect x="-154" y="499" fill="#939393" width="192" height="93"/>
<rect x="-95" y="513" fill="#333333" width="75" height="12"/>
<rect x="-154" y="396" fill="#939393" width="192" height="93"/>
<rect x="-95" y="410" fill="#333333" width="75" height="12"/>
<rect x="124" y="128" fill="#5B5B59" width="401" height="228"/>
<rect x="132.7" y="134.8" fill="#FFFFFF" width="384.5" height="214.4"/>
<ellipse fill="#283033" cx="117.6" cy="389.2" rx="64.3" ry="56.9"/>
<ellipse fill="#283033" cx="542.6" cy="389.2" rx="64.3" ry="56.9"/>
<rect x="-172" y="466.4" fill="#FFFFFF" width="171.8" height="189.1"/>
<path d="M150.1,446.4H81.3c-6.6,0-12-5.4-12-12V314.2c0-6.6,5.4-12,12-12h68.8c6.6,0,12,5.4,12,12v120.2
	C162.1,441,156.7,446.4,150.1,446.4z"/>
<ellipse cx="115.7" cy="307" rx="46.4" ry="52"/>
<polygon fill="#3D3D3D" points="151.6,496.4 89.3,496.4 48.9,446.5 60.8,384.3 116,356.6 173,384.3 188.8,446.5 "/>
<polygon fill="#3D3D3D" points="577.6,498 515.3,498 474.9,448.1 486.8,385.8 542,358.1 599,385.8 614.8,448.1 "/>
<path fill="#E5D2BA" d="M550.7,372h-13.5c-4.7,0-8.5-3.8-8.5-8.5v-16c0-4.7,3.8-8.5,8.5-8.5h13.5c4.7,0,8.5,3.8,8.5,8.5v16
	C559.2,368.2,555.4,372,550.7,372z"/>
<path fill="#E5D2BA" d="M119.2,372.2h-6.5c-6.6,0-12-5.4-12-12v-6.5c0-6.6,5.4-12,12-12h6.5c6.6,0,12,5.4,12,12v6.5
	C131.2,366.8,125.8,372.2,119.2,372.2z"/>
<ellipse fill="#F9E7CD" cx="115.3" cy="307.7" rx="40.7" ry="46.3"/>
<path d="M151.5,347.2c0.7-4.4,1-9,1-13.7c0-38.8-23.3-70.7-53.2-74.3c2-0.2,4.1-0.3,6.2-0.3c31.5,0,57,24.8,57,55.5
	C162.6,326.7,158.5,338,151.5,347.2z"/>
<path display="none" fill="#F9E7CD" d="M442.2,320.2C433.2,391.8,390.4,446,339,446c-58,0-105-69-105-154s47-154,105-154
	c3.3,0,6.6,0.2,9.9,0.7c-51.1,6.2-90.9,54.8-90.9,113.8c0,63.2,45.7,114.5,102,114.5C393.8,367,423.7,348.6,442.2,320.2z"/>
<path display="none" fill="#F9E7CD" d="M444,292c0,9.6-0.6,19.1-1.8,28.2C423.7,348.6,393.8,367,360,367c-56.3,0-102-51.3-102-114.5
	c0-59,39.8-107.6,90.9-113.8C402.2,146,444,211.8,444,292z"/>
<rect x="517.3" y="256.5" transform="matrix(0.8247 0.5656 -0.5656 0.8247 244.2119 -249.6473)" fill="#020202" width="14.9" height="25.3"/>
<path d="M601.4,227.5L601.4,227.5c0,0,0,0.1,0,0.1V227.5z"/>
<ellipse fill="#E5D2BA" cx="504.7" cy="309.4" rx="8" ry="10.8"/>
<ellipse fill="#E5D2BA" cx="581.1" cy="309.4" rx="8" ry="10.8"/>
<path fill="#E09532" d="M773.3,226.8l0,3.4c-0.4-1.8-0.9-3.7-1.5-5.5L773.3,226.8z"/>
<rect x="540.4" y="243.9" transform="matrix(0.5 0.866 -0.866 0.5 503.2169 -345.3464)" fill="#020202" width="20.7" height="38.5"/>
<rect x="532.7" y="243.5" transform="matrix(0.5 0.866 -0.866 0.5 496.2757 -339.5099)" fill="#020202" width="18.9" height="33"/>
<rect x="520.1" y="246.6" transform="matrix(0.6293 0.7772 -0.7772 0.6293 394.2802 -315.3459)" fill="#020202" width="15.2" height="18.1"/>
<rect x="544.6" y="257.7" transform="matrix(0.1658 0.9862 -0.9862 0.1658 738.4083 -328.0735)" fill="#020202" width="37.1" height="29.4"/>
<path fill="#F9E7CD" d="M581.4,312.3c0,23.7-16.9,43-37.8,43s-37.8-19.2-37.8-43c0-4.4,0.6-8.6,1.6-12.5l-0.1,23.6l13.8,19.1
	l22.4,7.2l22.5-7.4l14-19.2l0.1-22.2C580.9,304.5,581.4,308.3,581.4,312.3z"/>
<path fill="#020202" d="M524.7,270.8L524.7,270.8c-10.6,0-19.2,8.6-19.2,19.2v17.1c0,10.6,8.6,19.2,19.2,19.2h0
	c10.6,0,19.2-8.6,19.2-19.2V290C544,279.4,535.4,270.8,524.7,270.8z"/>
<rect x="511" y="249.6" transform="matrix(0.9574 0.2887 -0.2887 0.9574 99.6656 -137.7679)" fill="#020202" width="11.9" height="38.8"/>
<path fill="#020202" d="M562,272L562,272c-10.6,0-19.1,8.6-19.1,19.1v17.3c0,10.6,8.6,19.1,19.1,19.1l0,0c10.6,0,19.1-8.6,19.1-19.1
	v-17.3C581.1,280.6,572.6,272,562,272z"/>
<path fill="#F9E7CD" d="M580,300l-0.1,24.6l-14,21.2l-22.5,8.2l-22.4-8l-13.8-21.1l0.1-26.1c0,0,0-0.1,0-0.1l13.9-21.2l22.5-8.2
	l22.4,8l13.2,20.2C579.6,298.3,579.8,299.1,580,300z"/>
<path fill="#FFFFFF" d="M534.8,307.2c0,1.6-2.2,3.1-5.5,3.7c-1.2,0.2-2.6,0.4-4,0.4c-1.3,0-2.4-0.1-3.5-0.3c-3.5-0.6-6-2.1-6-3.8
	c0-2.3,4.3-4.1,9.5-4.1S534.8,304.9,534.8,307.2z"/>
<path display="none" fill="#020202" d="M657.3,254.1c-1.4,3.5-4.8,5.9-8.8,5.9c-3.9,0-7.2-2.3-8.7-5.7c2.5,0.4,5.3,0.7,8.2,0.7
	C651.3,255,654.5,254.7,657.3,254.1z"/>
<path fill="#020202" d="M529.6,309.4c0,0.6-0.1,1.1-0.3,1.6c-1.2,0.2-2.6,0.4-4,0.4c-1.3,0-2.4-0.1-3.5-0.3
	c-0.2-0.5-0.3-1.1-0.3-1.6c0-2.3,1.8-4.1,4.1-4.1C527.8,305.3,529.6,307.1,529.6,309.4z"/>
<path fill="#FFFFFF" d="M572.8,307.2c0,1.6-2.2,3.1-5.5,3.7c-1.2,0.2-2.6,0.4-4,0.4c-1.3,0-2.4-0.1-3.5-0.3c-3.5-0.6-6-2.1-6-3.8
	c0-2.3,4.3-4.1,9.5-4.1S572.8,304.9,572.8,307.2z"/>
<path fill="#020202" d="M567.6,309.4c0,0.6-0.1,1.1-0.3,1.6c-1.2,0.2-2.6,0.4-4,0.4c-1.3,0-2.4-0.1-3.5-0.3
	c-0.2-0.5-0.3-1.1-0.3-1.6c0-2.3,1.8-4.1,4.1-4.1C565.8,305.3,567.6,307.1,567.6,309.4z"/>
<path fill="#FFFFFF" d="M105.7,304.7c0,1.7-2.4,3.2-5.8,3.9c-1.3,0.3-2.7,0.4-4.2,0.4c-1.3,0-2.6-0.1-3.7-0.3
	c-3.7-0.6-6.3-2.2-6.3-4c0-2.4,4.5-4.3,10-4.3S105.7,302.3,105.7,304.7z"/>
<path fill="#020202" d="M100.3,306.9c0,0.6-0.1,1.1-0.3,1.6c-1.3,0.3-2.7,0.4-4.2,0.4c-1.3,0-2.6-0.1-3.7-0.3
	c-0.2-0.5-0.4-1.1-0.4-1.7c0-2.4,1.9-4.3,4.3-4.3S100.3,304.5,100.3,306.9z"/>
<path fill="#FFFFFF" d="M145.8,304.7c0,1.7-2.4,3.2-5.8,3.9c-1.3,0.3-2.7,0.4-4.2,0.4c-1.3,0-2.6-0.1-3.7-0.3
	c-3.7-0.6-6.3-2.2-6.3-4c0-2.4,4.5-4.3,10-4.3S145.8,302.3,145.8,304.7z"/>
<path fill="#020202" d="M140.3,306.9c0,0.6-0.1,1.1-0.3,1.6c-1.3,0.3-2.7,0.4-4.2,0.4c-1.3,0-2.6-0.1-3.7-0.3
	c-0.2-0.5-0.4-1.1-0.4-1.7c0-2.4,1.9-4.3,4.3-4.3C138.4,302.6,140.3,304.5,140.3,306.9z"/>
<g id="XMLID_1_">
	<path fill="#FFFFFF" d="M558.3,337.3c-2,6.1-7.8,10.5-14.6,10.5c-6.7,0-12.4-4.2-14.5-10.2c4,1,8.8,1.7,13.9,1.7
		C548.8,339.3,554.1,338.5,558.3,337.3z"/>
</g>
<g id="XMLID_2_">
	<path fill="#FFFFFF" d="M130.4,336.3c-2.1,6.5-8.2,11.1-15.4,11.1c-7,0-13-4.5-15.3-10.7c4.2,1.1,9.2,1.8,14.7,1.8
		C120.5,338.5,126,337.7,130.4,336.3z"/>
</g>
<path d="M103,296.8c-0.8-0.4-1.6-0.7-2.5-1c-8.8-3.1-19.7-0.7-22.2,8.6c0-0.8,0-1.5,0-2.3c1-9.7,10.1-12.7,18-9.6
	C98.9,293.5,101.2,295,103,296.8z"/>
<path d="M127.9,296.8c0.8-0.4,1.6-0.7,2.5-1c8.8-3.1,19.7-0.7,22.2,8.6c0-0.8,0-1.5,0-2.3c-1-9.7-10.1-12.7-18-9.6
	C132,293.5,129.8,295,127.9,296.8z"/>
<path d="M100.7,261.3c-2.4,4-4.4,8.3-6.2,12.8c-14.4,37.6-0.3,78.4,31.5,94.4c-2.3-0.7-4.7-1.4-7-2.3c-34.9-13.3-54-48.2-42.7-77.8
	C80.9,276.5,89.6,267.2,100.7,261.3z"/>
<rect x="1255" y="524" fill="#D8A97D" width="25" height="63"/>
<rect x="800" y="525" fill="#D8A97D" width="25" height="63"/>
<rect x="625" y="395" fill="#BC9169" width="481" height="160"/>
<rect x="797" y="408" fill="#757575" width="135" height="135"/>
<rect x="641" y="408" fill="#757575" width="135" height="135"/>
<rect x="1128" y="399" fill="#757575" width="135" height="135"/>
<rect x="423.8" y="464.4" fill="#E6F7FF" width="252.4" height="190.6"/>
<rect x="676.2" y="466.4" fill="#FFFFFF" width="171.8" height="189.1"/>
<path d="M551.8,300.7c1.6-0.5,3.2-0.9,4.8-1.2c12.2-2.4,21.2,0.8,22.4,6.7c0-0.4,0-0.9,0-1.3c-0.4-6.5-7.3-10.6-16.4-9
	C558.6,296.6,554.9,298.3,551.8,300.7z"/>
<path d="M536.4,300.7c-1.6-0.5-3.2-0.9-4.8-1.2c-12.2-2.4-21.2,0.8-22.4,6.7c0-0.4,0-0.9,0-1.3c0.4-6.5,7.3-10.6,16.4-9
	C529.5,296.6,533.3,298.3,536.4,300.7z"/>
<rect x="-0.2" y="466.4" fill="#E6F7FF" width="252.4" height="188.6"/>
<polygon fill="#D1D1D1" points="848,470 -172,470 -164.9,449.6 840.9,449.6 "/>
<path fill="#E1E7EA" d="M172.7,461.1H65.3c-3,0-7-3.1-9-7.1h0c-2.2-4.3-1.4-8,1.9-8h121.7c3.3,0,4.1,3.7,1.9,8l0,0
	C179.7,458,175.7,461.1,172.7,461.1z"/>
<path fill="#E6F7FF" d="M159.9,460.5H77.1c-7,0-13.4-5.1-14.3-11.5l-6.6-45.7C55,395,60.8,388,69.1,388h98.8c8.3,0,14.1,7,12.9,15.4
	l-6.6,45.7C173.3,455.4,166.9,460.5,159.9,460.5z"/>
<path fill="#E1E7EA" d="M593.9,461.1H489.1c-2.9,0-6.8-3.1-8.8-7.1l0,0c-2.2-4.3-1.4-8,1.9-8h118.8c3.3,0,4,3.7,1.9,8l0,0
	C600.7,458,596.8,461.1,593.9,461.1z"/>
<path fill="#E6F7FF" d="M582.9,460.5h-82.8c-7,0-13.4-5.1-14.3-11.5l-6.6-45.7c-1.2-8.3,4.6-15.4,12.9-15.4h98.8
	c8.3,0,14.1,7,12.9,15.4l-6.6,45.7C596.3,455.4,589.9,460.5,582.9,460.5z"/>
<polygon fill="#A88365" points="1100.5,377.2 630.5,377.2 625,395.2 1106,395.2 "/>
<polygon fill="#CECECE" points="45.6,157.2 -162.6,157.2 -165,175.2 48,175.2 "/>
<rect x="252" y="655" fill="#54B4EF" width="171.9" height="20"/>
<rect x="530.1" y="243.6" transform="matrix(0.6293 0.7772 -0.7772 0.6293 395.6556 -324.2295)" fill="#020202" width="15.2" height="18.1"/>
<rect x="471" y="228" fill="none" width="147" height="222"/>
<rect x="42" y="226" fill="none" width="147" height="222"/>
</svg>
