<?xml version="1.0" encoding="utf-8"?>
<!-- Generator: Adobe Illustrator 21.0.0, SVG Export Plug-In . SVG Version: 6.00 Build 0)  -->
<svg version="1.2" baseProfile="tiny" id="Layer_1" xmlns="http://www.w3.org/2000/svg" xmlns:xlink="http://www.w3.org/1999/xlink"
	 x="0px" y="0px" width="1906px" height="641px" viewBox="0 0 1906 641" xml:space="preserve">
<rect x="-7" y="502" fill="#5F8E8D" width="1920" height="139"/>
<rect x="443" y="417.4" fill="#FFFFFF" width="171.8" height="189.1"/>
<rect x="443" y="606.5" fill="#54B4EF" width="171.8" height="19.5"/>
<rect x="867.1" y="417.4" fill="#FFFFFF" width="171.8" height="189.1"/>
<rect x="1291.2" y="606.5" fill="#54B4EF" width="171.8" height="19.5"/>
<path fill="#FFFFFF" d="M1606,125h-333c-6.6,0-12-5.4-12-12V57c0-6.6,5.4-12,12-12h333c6.6,0,12,5.4,12,12v56
	C1618,119.6,1612.6,125,1606,125z"/>
<rect x="1278" y="110" width="323" height="6"/>
<rect x="1278" y="100" width="323" height="6"/>
<circle fill="#339999" cx="1601" cy="69" r="5"/>
<ellipse fill="#283033" cx="732.6" cy="340.2" rx="64.3" ry="56.9"/>
<rect x="41" y="118" fill="#FFFFFF" width="213" height="439"/>
<rect x="52" y="133" fill="#CCCCCC" width="192" height="93"/>
<rect x="111" y="147" fill="#333333" width="75" height="12"/>
<rect x="53" y="236" fill="#CCCCCC" width="192" height="93"/>
<rect x="112" y="250" fill="#333333" width="75" height="12"/>
<rect x="52" y="442" fill="#CCCCCC" width="192" height="93"/>
<rect x="111" y="456" fill="#333333" width="75" height="12"/>
<rect x="52" y="339" fill="#CCCCCC" width="192" height="93"/>
<rect x="111" y="353" fill="#333333" width="75" height="12"/>
<rect x="279" y="11" fill="#5B5B59" width="401" height="228"/>
<rect x="287.7" y="17.8" fill="#FFFFFF" width="384.5" height="214.4"/>
<path d="M765.1,397.4h-68.8c-6.6,0-12-5.4-12-12V265.2c0-6.6,5.4-12,12-12h68.8c6.6,0,12,5.4,12,12v120.2
	C777.1,392,771.7,397.4,765.1,397.4z"/>
<ellipse cx="730.7" cy="258" rx="46.4" ry="52"/>
<ellipse fill="#283033" cx="1157.6" cy="340.2" rx="64.3" ry="56.9"/>
<polygon fill="#3D3D3D" points="766.6,447.4 704.3,447.4 663.9,397.5 675.8,335.3 731,307.6 788,335.3 803.8,397.5 "/>
<polygon fill="#3D3D3D" points="1192.6,449 1130.3,449 1089.9,399.1 1101.8,336.8 1157,309.1 1214,336.8 1229.8,399.1 "/>
<path fill="#E5D2BA" d="M1165.7,323h-13.5c-4.7,0-8.5-3.8-8.5-8.5v-16c0-4.7,3.8-8.5,8.5-8.5h13.5c4.7,0,8.5,3.8,8.5,8.5v16
	C1174.2,319.2,1170.4,323,1165.7,323z"/>
<path fill="#E5D2BA" d="M734.2,323.2h-6.5c-6.6,0-12-5.4-12-12v-6.5c0-6.6,5.4-12,12-12h6.5c6.6,0,12,5.4,12,12v6.5
	C746.2,317.8,740.8,323.2,734.2,323.2z"/>
<ellipse fill="#F9E7CD" cx="730.3" cy="258.7" rx="40.7" ry="46.3"/>
<path d="M766.5,298.2c0.7-4.4,1-9,1-13.7c0-38.8-23.3-70.7-53.2-74.3c2-0.2,4.1-0.3,6.2-0.3c31.5,0,57,24.8,57,55.5
	C777.6,277.7,773.5,289,766.5,298.2z"/>
<path display="none" fill="#F9E7CD" d="M1057.2,271.2c-9,71.6-51.8,125.8-103.2,125.8c-58,0-105-69-105-154S896,89,954,89
	c3.3,0,6.6,0.2,9.9,0.7c-51.1,6.2-90.9,54.8-90.9,113.8c0,63.2,45.7,114.5,102,114.5C1008.8,318,1038.7,299.6,1057.2,271.2z"/>
<path display="none" fill="#F9E7CD" d="M1059,243c0,9.6-0.6,19.1-1.8,28.2c-18.6,28.4-48.5,46.8-82.2,46.8
	c-56.3,0-102-51.3-102-114.5c0-59,39.8-107.6,90.9-113.8C1017.2,97,1059,162.8,1059,243z"/>
<rect x="1132.3" y="207.5" transform="matrix(0.8247 0.5656 -0.5656 0.8247 324.3112 -606.0675)" fill="#020202" width="14.9" height="25.3"/>
<path d="M1216.4,178.5L1216.4,178.5c0,0,0,0.1,0,0.1V178.5z"/>
<ellipse fill="#E5D2BA" cx="1119.7" cy="260.4" rx="8" ry="10.8"/>
<ellipse fill="#E5D2BA" cx="1196.1" cy="260.4" rx="8" ry="10.8"/>
<path fill="#E09532" d="M1388.3,177.8l0,3.4c-0.4-1.8-0.9-3.7-1.5-5.5L1388.3,177.8z"/>
<rect x="1155.4" y="194.9" transform="matrix(0.5 0.866 -0.866 0.5 768.2817 -902.452)" fill="#020202" width="20.7" height="38.5"/>
<rect x="1147.7" y="194.5" transform="matrix(0.5 0.866 -0.866 0.5 761.3405 -896.6156)" fill="#020202" width="18.9" height="33"/>
<rect x="1135.1" y="197.6" transform="matrix(0.6293 0.7772 -0.7772 0.6293 584.1749 -811.4605)" fill="#020202" width="15.2" height="18.1"/>
<rect x="1159.6" y="208.7" transform="matrix(0.1658 0.9862 -0.9862 0.1658 1203.1079 -975.4344)" fill="#020202" width="37.1" height="29.4"/>
<path fill="#F9E7CD" d="M1196.4,263.3c0,23.7-16.9,43-37.8,43s-37.8-19.2-37.8-43c0-4.4,0.6-8.6,1.6-12.5l-0.1,23.6l13.8,19.1
	l22.4,7.2l22.5-7.4l14-19.2l0.1-22.2C1195.9,255.5,1196.4,259.3,1196.4,263.3z"/>
<path fill="#020202" d="M1139.7,221.8L1139.7,221.8c-10.6,0-19.2,8.6-19.2,19.2v17.1c0,10.6,8.6,19.2,19.2,19.2l0,0
	c10.6,0,19.2-8.6,19.2-19.2V241C1159,230.4,1150.4,221.8,1139.7,221.8z"/>
<rect x="1126" y="200.6" transform="matrix(0.9574 0.2887 -0.2887 0.9574 111.704 -317.3942)" fill="#020202" width="11.9" height="38.8"/>
<path fill="#020202" d="M1177,223L1177,223c-10.6,0-19.1,8.6-19.1,19.1v17.3c0,10.6,8.6,19.1,19.1,19.1l0,0
	c10.6,0,19.1-8.6,19.1-19.1v-17.3C1196.1,231.6,1187.6,223,1177,223z"/>
<path fill="#F9E7CD" d="M1195,251l-0.1,24.6l-14,21.2l-22.5,8.2l-22.4-8l-13.8-21.1l0.1-26.1c0,0,0-0.1,0-0.1l13.9-21.2l22.5-8.2
	l22.4,8l13.2,20.2C1194.6,249.3,1194.8,250.1,1195,251z"/>
<path fill="#FFFFFF" d="M1149.8,258.2c0,1.6-2.2,3.1-5.5,3.7c-1.2,0.2-2.6,0.4-4,0.4c-1.3,0-2.4-0.1-3.5-0.3c-3.5-0.6-6-2.1-6-3.8
	c0-2.3,4.3-4.1,9.5-4.1C1145.6,254.1,1149.8,255.9,1149.8,258.2z"/>
<path display="none" fill="#020202" d="M1272.3,205.1c-1.4,3.5-4.8,5.9-8.8,5.9c-3.9,0-7.2-2.3-8.7-5.7c2.5,0.4,5.3,0.7,8.2,0.7
	C1266.3,206,1269.5,205.7,1272.3,205.1z"/>
<path fill="#020202" d="M1144.6,260.4c0,0.6-0.1,1.1-0.3,1.6c-1.2,0.2-2.6,0.4-4,0.4c-1.3,0-2.4-0.1-3.5-0.3
	c-0.2-0.5-0.3-1.1-0.3-1.6c0-2.3,1.8-4.1,4.1-4.1C1142.8,256.3,1144.6,258.1,1144.6,260.4z"/>
<path fill="#FFFFFF" d="M1187.8,258.2c0,1.6-2.2,3.1-5.5,3.7c-1.2,0.2-2.6,0.4-4,0.4c-1.3,0-2.4-0.1-3.5-0.3c-3.5-0.6-6-2.1-6-3.8
	c0-2.3,4.3-4.1,9.5-4.1C1183.5,254.1,1187.8,255.9,1187.8,258.2z"/>
<path fill="#020202" d="M1182.6,260.4c0,0.6-0.1,1.1-0.3,1.6c-1.2,0.2-2.6,0.4-4,0.4c-1.3,0-2.4-0.1-3.5-0.3
	c-0.2-0.5-0.3-1.1-0.3-1.6c0-2.3,1.8-4.1,4.1-4.1C1180.8,256.3,1182.6,258.1,1182.6,260.4z"/>
<path fill="#FFFFFF" d="M720.7,255.7c0,1.7-2.4,3.2-5.8,3.9c-1.3,0.3-2.7,0.4-4.2,0.4c-1.3,0-2.6-0.1-3.7-0.3
	c-3.7-0.6-6.3-2.2-6.3-4c0-2.4,4.5-4.3,10-4.3S720.7,253.3,720.7,255.7z"/>
<path fill="#020202" d="M715.3,257.9c0,0.6-0.1,1.1-0.3,1.6c-1.3,0.3-2.7,0.4-4.2,0.4c-1.3,0-2.6-0.1-3.7-0.3
	c-0.2-0.5-0.4-1.1-0.4-1.7c0-2.4,1.9-4.3,4.3-4.3C713.3,253.6,715.3,255.5,715.3,257.9z"/>
<path fill="#FFFFFF" d="M760.8,255.7c0,1.7-2.4,3.2-5.8,3.9c-1.3,0.3-2.7,0.4-4.2,0.4c-1.3,0-2.6-0.1-3.7-0.3
	c-3.7-0.6-6.3-2.2-6.3-4c0-2.4,4.5-4.3,10-4.3S760.8,253.3,760.8,255.7z"/>
<path fill="#020202" d="M755.3,257.9c0,0.6-0.1,1.1-0.3,1.6c-1.3,0.3-2.7,0.4-4.2,0.4c-1.3,0-2.6-0.1-3.7-0.3
	c-0.2-0.5-0.4-1.1-0.4-1.7c0-2.4,1.9-4.3,4.3-4.3S755.3,255.5,755.3,257.9z"/>
<rect x="1038.8" y="415.4" fill="#E6F7FF" width="252.4" height="190.6"/>
<g id="XMLID_1_">
	<path fill="#FFFFFF" d="M1173.3,288.3c-2,6.1-7.8,10.5-14.6,10.5c-6.7,0-12.4-4.2-14.5-10.2c4,1,8.8,1.7,13.9,1.7
		C1163.8,290.3,1169.1,289.5,1173.3,288.3z"/>
</g>
<g id="XMLID_2_">
	<path fill="#FFFFFF" d="M745.4,287.3c-2.1,6.5-8.2,11.1-15.4,11.1c-7,0-13-4.5-15.3-10.7c4.2,1.1,9.2,1.8,14.7,1.8
		C735.5,289.5,741,288.7,745.4,287.3z"/>
</g>
<path d="M718,247.8c-0.8-0.4-1.6-0.7-2.5-1c-8.8-3.1-19.7-0.7-22.2,8.6c0-0.8,0-1.5,0-2.3c1-9.7,10.1-12.7,18-9.6
	C713.9,244.5,716.2,246,718,247.8z"/>
<path d="M742.9,247.8c0.8-0.4,1.6-0.7,2.5-1c8.8-3.1,19.7-0.7,22.2,8.6c0-0.8,0-1.5,0-2.3c-1-9.7-10.1-12.7-18-9.6
	C747,244.5,744.8,246,742.9,247.8z"/>
<path d="M715.7,212.3c-2.4,4-4.4,8.3-6.2,12.8c-14.4,37.6-0.3,78.4,31.5,94.4c-2.3-0.7-4.7-1.4-7-2.3c-34.9-13.3-54-48.2-42.7-77.8
	C695.9,227.5,704.6,218.2,715.7,212.3z"/>
<rect x="1870" y="475" fill="#D8A97D" width="25" height="63"/>
<rect x="1415" y="476" fill="#D8A97D" width="25" height="63"/>
<rect x="1415" y="337" fill="#BC9169" width="481" height="160"/>
<rect x="1587" y="350" fill="#757575" width="135" height="135"/>
<rect x="1431" y="350" fill="#757575" width="135" height="135"/>
<rect x="1743" y="350" fill="#757575" width="135" height="135"/>
<rect x="1291.2" y="417.4" fill="#FFFFFF" width="171.8" height="189.1"/>
<path d="M1166.8,251.7c1.6-0.5,3.2-0.9,4.8-1.2c12.2-2.4,21.2,0.8,22.4,6.7c0-0.4,0-0.9,0-1.3c-0.4-6.5-7.3-10.6-16.4-9
	C1173.6,247.6,1169.9,249.3,1166.8,251.7z"/>
<path d="M1151.4,251.7c-1.6-0.5-3.2-0.9-4.8-1.2c-12.2-2.4-21.2,0.8-22.4,6.7c0-0.4,0-0.9,0-1.3c0.4-6.5,7.3-10.6,16.4-9
	C1144.5,247.6,1148.3,249.3,1151.4,251.7z"/>
<rect x="614.8" y="417.4" fill="#E6F7FF" width="252.4" height="188.6"/>
<polygon fill="#D1D1D1" points="1463,421 443,421 450.1,400.6 1455.9,400.6 "/>
<path fill="#E1E7EA" d="M787.7,412.1H680.3c-3,0-7-3.1-9-7.1l0,0c-2.2-4.3-1.4-8,1.9-8h121.7c3.3,0,4.1,3.7,1.9,8l0,0
	C794.7,409,790.7,412.1,787.7,412.1z"/>
<path fill="#E6F7FF" d="M774.9,411.5h-82.8c-7,0-13.4-5.1-14.3-11.5l-6.6-45.7c-1.2-8.3,4.6-15.4,12.9-15.4h98.8
	c8.3,0,14.1,7,12.9,15.4l-6.6,45.7C788.3,406.4,781.9,411.5,774.9,411.5z"/>
<path fill="#E1E7EA" d="M1208.9,412.1h-104.9c-2.9,0-6.8-3.1-8.8-7.1l0,0c-2.2-4.3-1.4-8,1.9-8h118.8c3.3,0,4,3.7,1.9,8l0,0
	C1215.7,409,1211.8,412.1,1208.9,412.1z"/>
<path fill="#E6F7FF" d="M1197.9,411.5h-82.8c-7,0-13.4-5.1-14.3-11.5l-6.6-45.7c-1.2-8.3,4.6-15.4,12.9-15.4h98.8
	c8.3,0,14.1,7,12.9,15.4l-6.6,45.7C1211.3,406.4,1204.9,411.5,1197.9,411.5z"/>
<polygon fill="#A88365" points="1890.5,319.2 1420.5,319.2 1415,337.2 1896,337.2 "/>
<polygon fill="#CECECE" points="251.6,100.2 43.4,100.2 41,118.2 254,118.2 "/>
<rect x="867" y="606" fill="#54B4EF" width="171.9" height="20"/>
<rect x="1145.1" y="194.6" transform="matrix(0.6293 0.7772 -0.7772 0.6293 585.5504 -820.3441)" fill="#020202" width="15.2" height="18.1"/>
<rect x="1086" y="179" fill="none" width="147" height="222"/>
<rect x="657" y="177" fill="none" width="147" height="222"/>
</svg>
